<?xml version="1.0" encoding="UTF-8"?>
<!DOCTYPE svg PUBLIC "-//W3C//DTD SVG 1.1//EN" "http://www.w3.org/Graphics/SVG/1.1/DTD/svg11.dtd">
<svg xmlns="http://www.w3.org/2000/svg" version="1.1" width="800px" height="800px" style="shape-rendering:geometricPrecision; text-rendering:geometricPrecision; image-rendering:optimizeQuality; fill-rule:evenodd; clip-rule:evenodd" xmlns:xlink="http://www.w3.org/1999/xlink">
<g><path style="opacity:1" fill="#5cd4af" d="M 56.5,334.5 C 54.6916,334.491 53.0249,334.991 51.5,336C 45.8054,339.511 40.1387,343.011 34.5,346.5C 35.7084,318.833 35.7084,291.166 34.5,263.5C 34.7095,259.685 35.7095,256.185 37.5,253C 39.1992,252.042 41.0326,251.542 43,251.5C 47.1279,252.745 51.2946,254.078 55.5,255.5C 56.4998,281.825 56.8331,308.158 56.5,334.5 Z"/></g>
<g><path style="opacity:1" fill="#5dd5ae" d="M 105.5,337.5 C 100.506,331.829 95.8393,325.829 91.5,319.5C 106.871,297.282 122.871,275.448 139.5,254C 152.724,254.649 165.891,254.482 179,253.5C 187.434,253.948 190.434,258.281 188,266.5C 187.075,267.047 186.242,267.713 185.5,268.5C 175.167,269.167 164.833,269.833 154.5,270.5C 138.378,293.116 122.045,315.45 105.5,337.5 Z"/></g>
<g><path style="opacity:1" fill="#5dd5af" d="M 153.5,373.5 C 147.819,368.666 141.819,364.332 135.5,360.5C 159.632,335.868 183.965,311.368 208.5,287C 211.712,285.921 215.045,285.421 218.5,285.5C 230.925,285.853 243.258,286.687 255.5,288C 260.446,292.3 260.779,296.967 256.5,302C 245.208,303.189 233.875,303.856 222.5,304C 199.379,327.103 176.379,350.27 153.5,373.5 Z"/></g>
<g><path style="opacity:1" fill="#5cd4ae" d="M 649.5,473.5 C 644.065,472.534 640.232,469.534 638,464.5C 635.628,457.859 633.794,451.193 632.5,444.5C 631.812,438.866 631.312,433.199 631,427.5C 630.79,429.058 630.29,430.391 629.5,431.5C 627.993,427.155 625.827,423.155 623,419.5C 621.314,411.758 619.481,404.091 617.5,396.5C 617.589,386.811 617.756,377.144 618,367.5C 616.933,368.191 615.766,368.691 614.5,369C 602.5,369.667 590.5,369.667 578.5,369C 573.26,364.075 573.594,359.409 579.5,355C 591.826,354.035 604.159,353.702 616.5,354C 617.424,355.489 618.424,355.656 619.5,354.5C 620.898,333.544 622.065,312.544 623,291.5C 623.792,289.413 624.959,287.579 626.5,286C 631.514,284.66 635.681,285.827 639,289.5C 640.839,312.788 642.173,336.121 643,359.5C 643.983,357.552 645.15,355.718 646.5,354C 659.5,353.333 672.5,353.333 685.5,354C 690.224,356.435 691.724,360.269 690,365.5C 688.786,367.049 687.286,368.215 685.5,369C 672.836,369.056 660.169,368.723 647.5,368C 645.513,366.681 644.346,364.848 644,362.5C 643.333,369.5 643.333,376.5 644,383.5C 645.999,413.482 647.833,443.482 649.5,473.5 Z"/></g>
<g><path style="opacity:1" fill="#5dd5ae" d="M 392.5,446.5 C 392.736,443.774 391.903,441.441 390,439.5C 386.187,434.84 381.687,431.173 376.5,428.5C 377.458,427.038 378.624,425.705 380,424.5C 380.667,407.167 380.667,389.833 380,372.5C 362.562,354.147 344.229,336.147 325,318.5C 310.653,332.681 296.486,347.014 282.5,361.5C 296.819,376.319 311.319,390.986 326,405.5C 329.016,402.651 331.85,399.651 334.5,396.5C 327.848,389.348 321.015,382.348 314,375.5C 311.879,371.003 312.212,366.67 315,362.5C 320.306,353.766 327.139,352.266 335.5,358C 345.724,369.551 355.891,381.051 366,392.5C 366.667,395.5 366.667,398.5 366,401.5C 353.078,412.775 340.912,424.941 329.5,438C 324.771,438.996 320.271,438.496 316,436.5C 295.311,413.481 274.311,390.814 253,368.5C 249.886,365.041 248.886,361.041 250,356.5C 273.421,334.282 296.254,311.782 318.5,289C 323.167,285.667 327.833,285.667 332.5,289C 355.608,312.767 378.441,336.267 401,359.5C 401.419,360.672 402.085,361.672 403,362.5C 404.514,385.813 404.848,409.146 404,432.5C 401.757,438.522 397.924,443.189 392.5,446.5 Z"/></g>
<g><path style="opacity:1" fill="#195556" d="M 91.5,319.5 C 95.8393,325.829 100.506,331.829 105.5,337.5C 91.2442,357.762 76.5776,377.762 61.5,397.5C 89.6387,438.138 117.972,478.638 146.5,519C 241.499,519.5 336.499,519.667 431.5,519.5C 430.934,505.045 430.267,490.378 429.5,475.5C 434.983,472.565 440.65,470.232 446.5,468.5C 446.667,492.502 446.5,516.502 446,540.5C 445.167,541.333 444.333,542.167 443.5,543C 347.792,545.069 252.125,546.069 156.5,546C 151.803,546.28 147.137,546.78 142.5,547.5C 140.143,546.905 137.977,545.905 136,544.5C 110.408,505.645 84.0742,467.312 57,429.5C 56.6667,466.833 56.3333,504.167 56,541.5C 54.143,543.695 51.8096,545.029 49,545.5C 45.5187,544.877 42.0187,544.377 38.5,544C 36.1304,541.707 34.7971,538.874 34.5,535.5C 34.7823,472.617 34.7823,409.617 34.5,346.5C 40.1387,343.011 45.8054,339.511 51.5,336C 53.0249,334.991 54.6916,334.491 56.5,334.5C 56.3335,344.839 56.5002,355.172 57,365.5C 68.3552,349.989 79.8552,334.656 91.5,319.5 Z"/></g>
<g><path style="opacity:1" fill="#5dd6af" d="M 555.5,351.5 C 569.532,349.364 574.365,355.03 570,368.5C 560.408,375.586 554.242,373.253 551.5,361.5C 552.064,359.181 552.564,356.847 553,354.5C 554.417,353.922 555.25,352.922 555.5,351.5 Z"/></g>
<g><path style="opacity:1" fill="#5dd4ae" d="M 515.5,476.5 C 510.407,475.121 505.407,473.454 500.5,471.5C 499.96,450.785 498.794,430.118 497,409.5C 495.878,407.376 494.378,405.543 492.5,404C 486.685,403.325 481.018,402.325 475.5,401C 465.533,399.721 455.866,400.554 446.5,403.5C 445.288,425.17 445.288,446.837 446.5,468.5C 440.65,470.232 434.983,472.565 429.5,475.5C 429.333,438.165 429.5,400.832 430,363.5C 433.849,360.378 438.182,359.712 443,361.5C 443.419,362.672 444.085,363.672 445,364.5C 445.5,371.826 445.666,379.159 445.5,386.5C 464.478,384.372 483.145,385.539 501.5,390C 508.859,394.885 513.026,401.719 514,410.5C 514.794,432.495 515.294,454.495 515.5,476.5 Z"/></g>
<g><path style="opacity:1" fill="#195455" d="M 135.5,360.5 C 141.819,364.332 147.819,368.666 153.5,373.5C 148.036,379.465 142.37,385.298 136.5,391C 152.163,391.5 167.83,391.667 183.5,391.5C 184.992,394.323 187.326,395.99 190.5,396.5C 191.648,401.439 189.981,404.939 185.5,407C 169.51,406.608 153.51,406.608 137.5,407C 165.768,436.058 194.102,465.391 222.5,495C 232.799,494.26 243.132,493.927 253.5,494C 260.231,497.759 261.231,502.759 256.5,509C 241.103,510.154 225.77,511.154 210.5,512C 174.297,475.645 138.131,438.812 102,401.5C 101.333,398.5 101.333,395.5 102,392.5C 113.374,382.126 124.54,371.459 135.5,360.5 Z"/></g>
<g><path style="opacity:1" fill="#5cd3ad" d="M 287.5,440.5 C 274.519,435.008 261.852,429.008 249.5,422.5C 249.051,412.395 249.551,402.395 251,392.5C 252.078,390.61 253.745,389.61 256,389.5C 260.67,391.554 265.503,391.887 270.5,390.5C 271.167,402.167 271.833,413.833 272.5,425.5C 277.854,430.188 282.854,435.188 287.5,440.5 Z"/></g>
<g><path style="opacity:1" fill="#58d9a1" d="M 183.5,391.5 C 186.643,391.969 188.977,393.636 190.5,396.5C 187.326,395.99 184.992,394.323 183.5,391.5 Z"/></g>
<g><path style="opacity:1" fill="#5cd4ae" d="M 572.5,429.5 C 565.801,441.875 558.301,453.875 550,465.5C 548.887,466.305 547.721,466.972 546.5,467.5C 548.15,443.048 550.817,418.715 554.5,394.5C 556.091,392.016 558.425,391.016 561.5,391.5C 564.575,391.016 566.909,392.016 568.5,394.5C 569.922,406.179 571.255,417.846 572.5,429.5 Z"/></g>
<g><path style="opacity:1" fill="#5dd5af" d="M 695.5,472.5 C 695.082,471.778 694.416,471.278 693.5,471C 687.085,470.21 680.752,470.376 674.5,471.5C 675.151,453.887 678.318,436.887 684,420.5C 696.582,392.851 717.082,385.018 745.5,397C 749.092,399.713 752.592,402.547 756,405.5C 762.228,416.594 765.394,428.594 765.5,441.5C 764.364,450.496 763.197,459.496 762,468.5C 759.573,471.57 756.406,473.404 752.5,474C 742.833,474.667 733.167,474.667 723.5,474C 714.275,471.507 704.942,471.007 695.5,472.5 Z M 716.5,407.5 C 737.235,406.068 748.068,415.735 749,436.5C 749.168,443.83 749.001,451.163 748.5,458.5C 746.08,458.292 743.747,458.626 741.5,459.5C 729.647,458.307 717.814,456.973 706,455.5C 701.147,455.281 696.481,455.948 692,457.5C 693.05,442.351 697.716,428.351 706,415.5C 709.449,412.523 712.949,409.856 716.5,407.5 Z"/></g>
<g><path style="opacity:1" fill="#195556" d="M 617.5,396.5 C 619.481,404.091 621.314,411.758 623,419.5C 625.827,423.155 627.993,427.155 629.5,431.5C 628.22,467.198 626.387,502.864 624,538.5C 622.954,540.09 621.787,541.59 620.5,543C 603.815,543.461 587.148,543.794 570.5,544C 569.333,542.833 568.167,541.667 567,540.5C 564.696,521.888 562.696,503.221 561,484.5C 558.123,502.344 556.123,520.344 555,538.5C 552.926,540.452 550.759,542.285 548.5,544C 533.817,544.58 519.15,544.246 504.5,543C 503.233,540.58 502.233,538.08 501.5,535.5C 501.477,533.933 501.977,532.6 503,531.5C 503.167,526 503.333,520.5 503.5,515C 502.289,500.547 501.289,486.047 500.5,471.5C 505.407,473.454 510.407,475.121 515.5,476.5C 516.222,476.918 516.722,477.584 517,478.5C 518.233,494.81 518.733,511.143 518.5,527.5C 525.538,527.791 532.538,528.458 539.5,529.5C 541.396,508.725 543.73,488.058 546.5,467.5C 547.721,466.972 548.887,466.305 550,465.5C 558.301,453.875 565.801,441.875 572.5,429.5C 575.497,462.111 578.497,494.778 581.5,527.5C 590.5,527.5 599.5,527.5 608.5,527.5C 610.708,485.17 613.208,442.837 616,400.5C 616.21,398.942 616.71,397.609 617.5,396.5 Z"/></g>
<g><path style="opacity:1" fill="#195556" d="M 249.5,422.5 C 261.852,429.008 274.519,435.008 287.5,440.5C 301.048,452.544 314.215,465.211 327,478.5C 343.675,461.992 360.175,445.325 376.5,428.5C 381.687,431.173 386.187,434.84 390,439.5C 391.903,441.441 392.736,443.774 392.5,446.5C 372.233,466.935 351.899,487.101 331.5,507C 327.33,507.325 323.33,507.491 319.5,507.5C 296.604,483.109 273.437,459.442 250,436.5C 249.501,431.845 249.334,427.179 249.5,422.5 Z"/></g>
<g><path style="opacity:1" fill="#195556" d="M 632.5,444.5 C 633.794,451.193 635.628,457.859 638,464.5C 640.232,469.534 644.065,472.534 649.5,473.5C 650.335,491.544 651.335,509.544 652.5,527.5C 658.295,528.83 664.462,529.496 671,529.5C 677.167,529.167 683.333,528.833 689.5,528.5C 689.376,527.893 689.043,527.56 688.5,527.5C 685.262,524.036 682.762,520.036 681,515.5C 676.977,501.139 674.811,486.472 674.5,471.5C 680.752,470.376 687.085,470.21 693.5,471C 694.416,471.278 695.082,471.778 695.5,472.5C 693.833,472.5 692.167,472.5 690.5,472.5C 689.605,487.371 692.439,501.371 699,514.5C 706.271,523.55 715.771,527.883 727.5,527.5C 728.407,533.106 728.74,538.773 728.5,544.5C 700.165,544.667 671.831,544.5 643.5,544C 639.479,542.132 637.313,538.965 637,534.5C 635.658,504.462 634.158,474.462 632.5,444.5 Z"/></g>
<g><path style="opacity:1" fill="#5ed5ad" d="M 728.5,544.5 C 728.74,538.773 728.407,533.106 727.5,527.5C 733.093,527.807 738.593,527.473 744,526.5C 744.333,518.167 744.667,509.833 745,501.5C 748.804,495.623 753.471,494.956 759,499.5C 760.633,510.849 760.633,522.182 759,533.5C 758.043,536.022 756.543,538.189 754.5,540C 746.42,544.184 737.753,545.684 728.5,544.5 Z"/></g>
<g><path style="opacity:1" fill="#000000" d="M 652.5,527.5 C 664.598,528.82 676.598,528.82 688.5,527.5C 689.043,527.56 689.376,527.893 689.5,528.5C 683.333,528.833 677.167,529.167 671,529.5C 664.462,529.496 658.295,528.83 652.5,527.5 Z"/></g>
</svg>
